<svg xmlns="http://www.w3.org/2000/svg" viewBox="0 0 12 2.72"><defs><clipPath id="a"><path d="M0 0h12v2.72H0z" style="fill:none"/></clipPath></defs><path d="M1.28 1.84V0h.5v2.68h-.62L.5.8v1.88H0V0h.62zm1.39.03c0 .07 0 .13.01.19 0 .06.03.11.05.15s.06.07.1.1c.04.02.09.04.16.04.06 0 .12-.01.16-.04.04-.02.07-.06.1-.1.02-.04.04-.09.05-.15 0-.06.01-.12.01-.19V0h.54v1.87c0 .17-.02.31-.07.42s-.11.2-.19.26c-.08.07-.17.11-.27.13a1.7 1.7 0 0 1-.64 0 .7.7 0 0 1-.27-.12.65.65 0 0 1-.19-.26c-.05-.11-.07-.26-.07-.44V0h.54v1.87ZM5.1 0c.19 0 .34.03.46.09.11.06.21.15.27.26s.11.25.13.41q.03.24.03.54c0 .24-.01.44-.04.61s-.08.32-.15.43-.17.2-.28.25c-.12.06-.27.08-.45.08h-.85V0h.89Zm-.11 2.28c.1 0 .17-.02.23-.05s.1-.09.14-.16c.03-.08.06-.17.07-.3.01-.12.02-.28.02-.46 0-.15 0-.29-.01-.4C5.43.79 5.41.7 5.38.62a.34.34 0 0 0-.14-.17.44.44 0 0 0-.25-.06h-.23v1.88H5ZM7.54 0l.71 2.68h-.56l-.12-.57h-.72l-.12.57h-.56L6.88 0h.67Zm-.07 1.67L7.21.47l-.26 1.2h.53Zm1.51-.6L9.67 0h.59l-.73 1.15.81 1.53h-.61l-.55-1.1-.2.3v.8h-.54V0h.54zm2.98-.63H11v.63h.9v.44H11v.72h1v.44h-1.54V0h1.5z" style="clip-path:url(#a)"/></svg>